<svg xmlns="http://www.w3.org/2000/svg" width="59" height="59" fill="none" viewBox="0 0 59 59">
  <g clip-path="url(#a)">
    <path fill="#fff" d="M29.776 4.048a1.819 1.819 0 0 0-1.353 0L6.715 12.731l8.744 3.496 22.385-8.952-8.068-3.227ZM42.74 9.236l-22.385 8.951 8.745 3.496 22.384-8.952-8.744-3.495Zm11.822 6.183-23.644 9.458v28.816l23.644-9.458V15.42ZM27.28 53.696V24.873L3.637 15.419v28.82l23.644 9.457ZM27.074.67c1.3-.52 2.751-.52 4.052 0l25.931 10.374a1.819 1.819 0 0 1 1.142 1.688V44.24a3.638 3.638 0 0 1-2.288 3.375L29.776 58.068a1.818 1.818 0 0 1-1.353 0L2.292 47.614A3.637 3.637 0 0 1 0 44.24V12.73a1.819 1.819 0 0 1 1.142-1.688L27.074.67Z"/>
  </g>
  <defs>
    <clipPath id="a">
      <path fill="#fff" d="M0 0h58.199v58.199H0z"/>
    </clipPath>
  </defs>
</svg>
