<svg xmlns="http://www.w3.org/2000/svg" width="47" height="50" fill="none" viewBox="0 0 47 50">
  <path fill="#FFCA32" d="M3.917 50S0 50 0 45.833c0-4.166 3.917-16.666 23.5-16.666S47 41.667 47 45.833C47 50 43.083 50 43.083 50H3.917ZM23.5 25c3.116 0 6.105-1.317 8.308-3.661 2.204-2.344 3.442-5.524 3.442-8.839 0-3.315-1.238-6.495-3.442-8.839C29.605 1.317 26.616 0 23.5 0c-3.116 0-6.105 1.317-8.309 3.661-2.203 2.344-3.441 5.524-3.441 8.839 0 3.315 1.238 6.495 3.441 8.839C17.395 23.683 20.384 25 23.5 25Z"/>
</svg>
