<svg xmlns="http://www.w3.org/2000/svg" width="88" height="88" fill="none" viewBox="0 0 88 88">
  <path fill="#FFCA32" d="M38.5 77S33 77 33 71.5s5.5-22 27.5-22S88 66 88 71.5 82.5 77 82.5 77h-44Zm22-33a16.5 16.5 0 1 0 0-33 16.5 16.5 0 0 0 0 33Z"/>
  <path fill="#FFCA32" fill-rule="evenodd" d="M28.688 77a12.31 12.31 0 0 1-1.188-5.5c0-7.453 3.74-15.125 10.648-20.46A34.79 34.79 0 0 0 27.5 49.5C5.5 49.5 0 66 0 71.5S5.5 77 5.5 77h23.188Z" clip-rule="evenodd"/>
  <path fill="#FFCA32" d="M24.75 44a13.75 13.75 0 1 0 0-27.5 13.75 13.75 0 0 0 0 27.5Z"/>
</svg>
